<svg xmlns="http://www.w3.org/2000/svg" viewBox="0 0 1024 1024">
  <defs/>
  <defs>
    <radialGradient id="a" cx="-14480.5" cy="-8329.1" r="450.9" fx="-14509.3" gradientTransform="matrix(.762 .034 -.05 1.12 11561 10069)" gradientUnits="userSpaceOnUse">
      <stop offset="0" stop-color="#ffea00"/>
      <stop offset=".1" stop-color="#ffde00"/>
      <stop offset=".3" stop-color="#ffbf00"/>
      <stop offset=".4" stop-color="#ff8e00"/>
      <stop offset=".8" stop-color="#ff272d"/>
      <stop offset=".9" stop-color="#e0255a"/>
      <stop offset="1" stop-color="#cc2477"/>
      <stop offset="1" stop-color="#c42482"/>
    </radialGradient>
    <radialGradient id="b" cx="-7529.7" cy="-7921.6" r="791.2" gradientTransform="translate(9922 9899) scale(1.225)" gradientUnits="userSpaceOnUse">
      <stop offset="0" stop-color="#00ccda"/>
      <stop offset=".2" stop-color="#0083ff"/>
      <stop offset=".3" stop-color="#007af9"/>
      <stop offset=".3" stop-color="#0060e8"/>
      <stop offset=".3" stop-color="#005fe7"/>
      <stop offset=".4" stop-color="#2639ad"/>
      <stop offset=".5" stop-color="#401e84"/>
      <stop offset=".6" stop-color="#4a1475"/>
    </radialGradient>
    <radialGradient id="d" cx="-8260.9" cy="-6516.6" r="266.9" gradientTransform="rotate(6 -90365 106952) scale(1.225)" gradientUnits="userSpaceOnUse">
      <stop offset="0" stop-color="#ffea00"/>
      <stop offset=".5" stop-color="#ff272d"/>
      <stop offset="1" stop-color="#c42482"/>
    </radialGradient>
    <radialGradient id="e" cx="-8285.1" cy="-6772.5" r="445.7" gradientTransform="rotate(6 -90365 106952) scale(1.225)" gradientUnits="userSpaceOnUse">
      <stop offset="0" stop-color="#ffe900"/>
      <stop offset=".2" stop-color="#ffaf0e"/>
      <stop offset=".3" stop-color="#ff7a1b"/>
      <stop offset=".5" stop-color="#ff4e26"/>
      <stop offset=".6" stop-color="#ff2c2e"/>
      <stop offset=".8" stop-color="#ff1434"/>
      <stop offset=".9" stop-color="#ff0538"/>
      <stop offset="1" stop-color="#ff0039"/>
    </radialGradient>
    <radialGradient id="f" cx="-8222.1" cy="-6359.3" r="409" gradientTransform="rotate(6 -90365 106952) scale(1.225)" gradientUnits="userSpaceOnUse">
      <stop offset="0" stop-color="#ff272d"/>
      <stop offset=".5" stop-color="#c42482"/>
      <stop offset="1" stop-color="#620700"/>
    </radialGradient>
    <radialGradient id="g" cx="750.2" cy="396" r="782.2" fx="778.2" fy="382.2" gradientUnits="userSpaceOnUse">
      <stop offset=".2" stop-color="#ffea00"/>
      <stop offset=".2" stop-color="#ffde00"/>
      <stop offset=".4" stop-color="#ffbf00"/>
      <stop offset=".5" stop-color="#ff8e00"/>
      <stop offset=".8" stop-color="#ff272d"/>
      <stop offset=".8" stop-color="#f92433"/>
      <stop offset=".8" stop-color="#e91c45"/>
      <stop offset=".9" stop-color="#cf0e62"/>
      <stop offset=".9" stop-color="#b5007f"/>
    </radialGradient>
    <radialGradient id="h" cx="691.3" cy="3.3" r="923.6" gradientUnits="userSpaceOnUse">
      <stop offset=".3" stop-color="#ffea00"/>
      <stop offset=".4" stop-color="#fd0"/>
      <stop offset=".6" stop-color="#ffba00"/>
      <stop offset=".9" stop-color="#ff9100"/>
      <stop offset=".9" stop-color="#ff6711"/>
      <stop offset="1" stop-color="#ff4a1d"/>
    </radialGradient>
    <linearGradient id="c" x1="575.7" x2="384.2" y1="731.2" y2="105" gradientUnits="userSpaceOnUse">
      <stop offset="0" stop-color="#000f43" stop-opacity=".4"/>
      <stop offset=".5" stop-color="#001962" stop-opacity=".2"/>
      <stop offset="1" stop-color="#002079" stop-opacity="0"/>
    </linearGradient>
    <linearGradient id="i" x1="-8944.6" x2="-8660.3" y1="-6677.7" y2="-6750.2" gradientTransform="rotate(6 -90365 106952) scale(1.225)" gradientUnits="userSpaceOnUse">
      <stop offset="0" stop-color="#c42482" stop-opacity=".5"/>
      <stop offset=".5" stop-color="#ff272d" stop-opacity=".5"/>
      <stop offset=".5" stop-color="#ff2c2c" stop-opacity=".5"/>
      <stop offset=".7" stop-color="#ff7a1a" stop-opacity=".7"/>
      <stop offset=".8" stop-color="#ffb20d" stop-opacity=".9"/>
      <stop offset=".9" stop-color="#ffd605"/>
      <stop offset="1" stop-color="#ffe302"/>
    </linearGradient>
    <linearGradient id="j" x1="245.3" x2="190.8" y1="-1082" y2="-1221.9" gradientTransform="rotate(6 -13193 -1077)" gradientUnits="userSpaceOnUse">
      <stop offset="0" stop-color="#891551" stop-opacity=".6"/>
      <stop offset="1" stop-color="#c42482" stop-opacity="0"/>
    </linearGradient>
    <linearGradient id="k" x1="22" x2="116.1" y1="718.8" y2="825.7" gradientTransform="rotate(6 2611 2924)" gradientUnits="userSpaceOnUse">
      <stop offset="0" stop-color="#891551" stop-opacity=".5"/>
      <stop offset=".5" stop-color="#ff272d" stop-opacity=".5"/>
      <stop offset="1" stop-color="#ff272d" stop-opacity="0"/>
    </linearGradient>
    <linearGradient id="l" x1="200.1" x2="200.2" y1="904.6" y2="829.8" gradientTransform="rotate(6 2611 2924)" gradientUnits="userSpaceOnUse">
      <stop offset="0" stop-color="#c42482"/>
      <stop offset=".1" stop-color="#c42482" stop-opacity=".8"/>
      <stop offset=".2" stop-color="#c42482" stop-opacity=".6"/>
      <stop offset=".3" stop-color="#c42482" stop-opacity=".4"/>
      <stop offset=".4" stop-color="#c42482" stop-opacity=".2"/>
      <stop offset=".6" stop-color="#c42482" stop-opacity=".1"/>
      <stop offset=".7" stop-color="#c42482" stop-opacity="0"/>
      <stop offset=".8" stop-color="#c42482" stop-opacity="0"/>
    </linearGradient>
    <linearGradient id="m" x1="655.5" x2="961.2" y1="38.1" y2="721.6" gradientUnits="userSpaceOnUse">
      <stop offset="0" stop-color="#fff14f"/>
      <stop offset=".3" stop-color="#ffee4c"/>
      <stop offset=".5" stop-color="#ffe643"/>
      <stop offset=".6" stop-color="#ffd834"/>
      <stop offset=".8" stop-color="#ffc41e"/>
      <stop offset=".9" stop-color="#ffab02"/>
      <stop offset=".9" stop-color="#ffa900"/>
      <stop offset=".9" stop-color="#ffa000"/>
      <stop offset="1" stop-color="#ff9100"/>
    </linearGradient>
    <linearGradient id="n" x1="715.9" x2="571.1" y1="431.2" y2="820" gradientUnits="userSpaceOnUse">
      <stop offset="0" stop-color="#ff8e00"/>
      <stop offset="0" stop-color="#ff8e00" stop-opacity=".9"/>
      <stop offset=".1" stop-color="#ff8e00" stop-opacity=".7"/>
      <stop offset=".1" stop-color="#ff8e00" stop-opacity=".6"/>
      <stop offset=".2" stop-color="#ff8e00" stop-opacity=".6"/>
      <stop offset=".2" stop-color="#ff8e00" stop-opacity=".5"/>
      <stop offset=".3" stop-color="#ff8e00" stop-opacity=".5"/>
      <stop offset=".4" stop-color="#ff8e00" stop-opacity=".5"/>
      <stop offset=".5" stop-color="#ff8e00" stop-opacity=".4"/>
      <stop offset=".7" stop-color="#ff8e00" stop-opacity=".3"/>
      <stop offset=".8" stop-color="#ff8e00" stop-opacity=".2"/>
      <stop offset="1" stop-color="#ff8e00" stop-opacity="0"/>
    </linearGradient>
  </defs>
  <path fill="url(#a)" d="M805 94c-24 27-35 90-11 154s62 50 85 114c31 86 17 201 17 201s36 107 62-7c57-212-153-410-153-462z"/>
  <path fill="url(#b)" d="M513 977a445 445 0 000-892A445 445 0 0070 531c-1 246 198 446 443 446z"/>
  <path fill="url(#c)" d="M846 806a247 247 0 01-30 18 704 704 0 0038-63 247 247 0 0036-52c25-45 53-117 54-192v-6a258 258 0 00-6-55v1l1 6c5 43 1 85-17 116l-1 1c10-47 13-99 2-151 0 0-4-26-35-103-18-44-50-80-78-107-25-30-47-51-59-64-26-27-37-47-42-61-3-2-53-50-57-51-21 33-89 137-57 235 15 44 52 90 90 116 2 1 23 25 34 77 10 54 5 96-17 158-25 54-90 108-151 114-129 11-177-66-177-66 46 19 98 15 129-4s50-34 66-28c15 5 27-11 16-28a79 79 0 00-79-35c-32 6-61 30-102 6a86 86 0 01-7-5c-3-2 8 3 6 1-8-4-23-14-26-17l5 1c-38-31-33-53-32-66 1-11 8-25 20-30l9 5-4-7 2-1 20 12c7 5 9 9 9 9s2-1 1-5c-1-2-3-7-10-13h1a81 81 0 0111 8c2-7 6-15 5-28 0-9 0-12-2-16-1-3 1-4 4-1a33 33 0 00-3-7c4-12 69-41 73-44a67 67 0 0020-21c3-6 6-14 7-26 0-9-4-15-70-22-18-1-28-14-34-26l-4-8a58 58 0 01-2-8c10-31 28-57 55-77 1-1-6 0-4-1l14-7c3-1-10-7-22-5-12 1-15 2-21 5 2-3 11-6 9-6-13 2-29 10-43 18a11 11 0 011-4c-7 3-23 14-27 23a44 44 0 000-5 84 84 0 00-13 13v1c-38-15-71-16-98-10-6-6-9-1-23-32-1-2 0 2 0 0-3-6 1 8 0 0-24 19-54 39-69 54 0 1 17-5 0 0-6 2-6 5-6 38l-1 7a517 517 0 00-71 166 334 334 0 0126-51c-13 35-26 88-29 171a484 484 0 0113-50 473 473 0 0034 201c10 23 25 57 51 95a451 451 0 00667-11z"/>
  <path fill="url(#d)" d="M746 869c163-19 235-187 142-190-83-3-219 199-142 190z"/>
  <path fill="url(#e)" d="M900 644c112-65 83-206 83-206s-43 51-73 131c-29 79-77 115-10 75z"/>
  <path fill="url(#f)" d="M544 952c157 50 291-73 208-114-75-37-282 90-208 114z"/>
  <path fill="url(#g)" d="M912 704c4-5 9-22 13-30 28-44 28-80 28-81a377 377 0 00-71-338c-32-36-9-24-40-50-28-31-54-61-69-73C669 45 672 27 674 23l-2 2-2-9s-57 57-69 152c-8 62 15 127 49 168a381 381 0 0059 58c25 36 39 81 39 130 0 121-98 219-219 219a220 220 0 01-49-5c-58-11-91-40-107-59-10-12-14-20-14-20 52 18 108 15 143-4 35-20 56-34 73-28 16 5 30-11 18-28a91 91 0 00-88-34c-35 5-67 30-112 6a96 96 0 01-9-5c-3-2 10 2 7 0-9-4-25-13-29-17l7 2c-43-32-38-53-36-66 1-11 8-24 21-30l11 5-4-7h1l23 11 10 9s2-1 0-5c0-2-2-7-10-13a91 91 0 0113 8c3-7 7-14 6-28l-2-15c-2-3 0-4 3-1a30 30 0 00-2-7v-1c3-11 75-40 81-43a70 70 0 0021-21c4-5 7-13 8-26 0-5-2-9-21-14-11-2-29-5-56-7-20-2-32-15-39-27l-3-7a53 53 0 01-3-8 158 158 0 0161-76c2-2-6 0-5-1 2-2 14-6 17-7s-12-7-25-6c-14 2-17 3-24 6 3-3 13-6 10-6-14 2-32 9-47 18a10 10 0 011-5c-7 3-25 14-30 23a39 39 0 000-5 89 89 0 00-14 14h-1c-41-15-77-16-108-9-7-6-18-16-33-46-1-2-2 4-2 2-6-14-10-36-9-52 0 0-13 6-23 29l-4 9 1-7c-2 3-7 7-9 13l-4 11v-5a236 236 0 00-13 30c-5 18-12 43-13 75v7a482 482 0 00-78 164 319 319 0 0128-50c-15 34-29 88-32 170a439 439 0 0114-50 464 464 0 00222 407 402 402 0 00117 55 485 485 0 00139 20c175 0 227-70 227-70l7-7c-28 26-91 28-115 26 41-12 67-22 119-42l18-7 2-1 4-2a349 349 0 0070-44c52-41 63-82 69-108l-5 12c-13 29-43 46-75 61a689 689 0 0042-62c11-11 14-27 22-38z"/>
  <path fill="url(#h)" d="M849 803c21-23 40-50 54-80 37-78 94-207 49-341a483 483 0 00-146-222C706 68 677 27 677 2c0 0-116 129-65 264s153 130 221 271c81 166-65 347-185 397 8-1 267-60 281-208 0 2-6 43-80 77z"/>
  <path fill="url(#i)" d="M513 321c0-8-5-14-77-21-30-3-41-30-45-42-10 28-15 56-12 91 1 23 17 48 24 62l2-3c14-14 72-36 78-39 6-4 29-21 30-48z"/>
  <path fill="url(#j)" d="M193 158c-1-1-1 4-2 2-6-13-10-36-9-52 0 0-12 6-22 29l-5 9 1-7c-1 3-6 7-8 12l-5 12v-5c-23 46-28 115-25 112 50-54 108-67 108-67-6-4-20-17-33-45z"/>
  <path fill="url(#k)" d="M385 722c-70-30-149-72-146-167 4-126 117-101 117-101-4 1-16 9-20 18-4 11-12 35 12 61 37 40-76 95 98 199 5 3-41-1-61-10z"/>
  <path fill="url(#l)" d="M360 660c50 17 107 14 142-5 23-13 52-34 71-29a124 124 0 00-51-10 136 136 0 00-15 1c-9 1-19 6-28 6-1-1 9-4 8-4l-16 2-9 1c-103 8-190-56-190-56-8 25 33 74 88 94z"/>
  <path fill="url(#m)" d="M849 804a410 410 0 00134-366s9 71-25 144c17-71 19-160-25-252-57-122-152-187-188-214-54-41-77-82-77-91-17 34-66 149-6 247 57 93 146 120 209 205 115 157-22 327-22 327z"/>
  <path fill="url(#n)" d="M834 538c-37-76-82-108-125-144l9 14c38 40 94 139 53 262-76 232-381 123-413 92 13 135 238 199 385 112 83-79 150-213 91-336z"/>
</svg>
