<?xml version="1.0" encoding="UTF-8" standalone="no"?> <svg width="64" height="64" viewBox="0 0 64 64" fill="none" xmlns="http://www.w3.org/2000/svg">
<path d="M18.0697 19.8701L11.9897 56.7501H52.4897L45.6997 19.8701H18.0697Z" fill="#78B9EB"/>
<path d="M46.9999 19.89C46.9573 19.657 46.8334 19.4468 46.6503 19.2966C46.4672 19.1464 46.2367 19.0661 45.9999 19.07H41.3999V15.4C41.3999 12.907 40.4096 10.516 38.6467 8.7532C36.8839 6.99035 34.4929 6 31.9999 6C29.5069 6 27.1159 6.99035 25.3531 8.7532C23.5903 10.516 22.5999 12.907 22.5999 15.4V19.07H17.9999C17.7631 19.0661 17.5326 19.1464 17.3495 19.2966C17.1664 19.4468 17.0425 19.657 16.9999 19.89L10.4799 56.83C10.4549 56.9748 10.4621 57.1233 10.5011 57.265C10.54 57.4067 10.6097 57.5381 10.7052 57.6498C10.8006 57.7615 10.9196 57.8508 11.0535 57.9114C11.1874 57.9719 11.333 58.0021 11.4799 58H52.5299C52.6768 58.0021 52.8224 57.9719 52.9563 57.9114C53.0903 57.8508 53.2092 57.7615 53.3047 57.6498C53.4001 57.5381 53.4698 57.4067 53.5087 57.265C53.5477 57.1233 53.5549 56.9748 53.5299 56.83L46.9999 19.89ZM24.5999 15.4C24.5999 13.4374 25.3795 11.5552 26.7673 10.1674C28.1551 8.77964 30.0373 8 31.9999 8C33.9625 8 35.8447 8.77964 37.2325 10.1674C38.6203 11.5552 39.3999 13.4374 39.3999 15.4V19.07H24.5999V15.4ZM12.6599 56L18.8399 21.07H22.5999V25.67C22.5999 25.9352 22.7053 26.1896 22.8928 26.3771C23.0803 26.5646 23.3347 26.67 23.5999 26.67C23.8651 26.67 24.1195 26.5646 24.307 26.3771C24.4945 26.1896 24.5999 25.9352 24.5999 25.67V21.07H39.3999V25.67C39.3999 25.9352 39.5053 26.1896 39.6928 26.3771C39.8803 26.5646 40.1347 26.67 40.3999 26.67C40.6651 26.67 40.9195 26.5646 41.107 26.3771C41.2945 26.1896 41.3999 25.9352 41.3999 25.67V21.07H45.1599L51.3399 56H12.6599Z" fill="#006DF0"/>
<path d="M26.3998 24.6699C26.1346 24.6699 25.8802 24.7753 25.6927 24.9628C25.5052 25.1504 25.3998 25.4047 25.3998 25.6699C25.3998 25.9063 25.3532 26.1404 25.2628 26.3588C25.1723 26.5771 25.0397 26.7756 24.8726 26.9427C24.7055 27.1099 24.507 27.2424 24.2886 27.3329C24.0702 27.4234 23.8362 27.4699 23.5998 27.4699C23.3634 27.4699 23.1294 27.4234 22.911 27.3329C22.6926 27.2424 22.4942 27.1099 22.327 26.9427C22.1599 26.7756 22.0273 26.5771 21.9368 26.3588C21.8464 26.1404 21.7998 25.9063 21.7998 25.6699C21.7998 25.4047 21.6944 25.1504 21.5069 24.9628C21.3194 24.7753 21.065 24.6699 20.7998 24.6699C20.5346 24.6699 20.2802 24.7753 20.0927 24.9628C19.9052 25.1504 19.7998 25.4047 19.7998 25.6699C19.7998 26.6777 20.2002 27.6443 20.9128 28.3569C21.6254 29.0696 22.592 29.4699 23.5998 29.4699C24.6076 29.4699 25.5742 29.0696 26.2868 28.3569C26.9995 27.6443 27.3998 26.6777 27.3998 25.6699C27.3998 25.4047 27.2944 25.1504 27.1069 24.9628C26.9194 24.7753 26.665 24.6699 26.3998 24.6699Z" fill="#006DF0"/>
<path d="M43.2001 24.6699C42.9349 24.6699 42.6805 24.7753 42.493 24.9628C42.3055 25.1504 42.2001 25.4047 42.2001 25.6699C42.2001 26.1473 42.0105 26.6051 41.6729 26.9427C41.3353 27.2803 40.8775 27.4699 40.4001 27.4699C39.9227 27.4699 39.4649 27.2803 39.1273 26.9427C38.7897 26.6051 38.6001 26.1473 38.6001 25.6699C38.6001 25.4047 38.4947 25.1504 38.3072 24.9628C38.1197 24.7753 37.8653 24.6699 37.6001 24.6699C37.3349 24.6699 37.0805 24.7753 36.893 24.9628C36.7055 25.1504 36.6001 25.4047 36.6001 25.6699C36.6001 26.6777 37.0005 27.6443 37.7131 28.3569C38.4257 29.0696 39.3923 29.4699 40.4001 29.4699C41.4079 29.4699 42.3745 29.0696 43.0871 28.3569C43.7997 27.6443 44.2001 26.6777 44.2001 25.6699C44.2001 25.4047 44.0947 25.1504 43.9072 24.9628C43.7197 24.7753 43.4653 24.6699 43.2001 24.6699Z" fill="#006DF0"/>
</svg>
