<?xml version="1.0" encoding="utf-8"?>
<!-- Generator: Adobe Illustrator 24.1.1, SVG Export Plug-In . SVG Version: 6.00 Build 0)  -->
<svg version="1.1" id="Layer_1" xmlns="http://www.w3.org/2000/svg" xmlns:xlink="http://www.w3.org/1999/xlink" x="0px" y="0px"
	 viewBox="0 0 512 512" style="enable-background:new 0 0 512 512;" xml:space="preserve">
<g>
	<path d="M0,314.1h20.1v-52.2c0-10.3,6.8-17.8,16.4-17.8c9.4,0,15.2,5.9,15.2,15.4v54.6h19.5v-52.7c0-10.2,6.6-17.3,16.3-17.3
		c9.8,0,15.3,6,15.3,16.4v53.6h20.1v-58.5c0-17.1-11-28.4-27.9-28.4c-12.3,0-22.5,6.6-26.6,17.1h-0.5c-3.1-10.9-11.8-17.1-23.9-17.1
		c-11.6,0-20.6,6.5-24.4,16.4h-0.4v-14.8H0V314.1z M166.8,300.3c-8.7,0-14.5-4.4-14.5-11.4c0-6.8,5.6-11.1,15.2-11.8l19.8-1.2v6.5
		C187.3,292.7,178.2,300.3,166.8,300.3z M160.8,315.4c11,0,21.7-5.7,26.6-15h0.4v13.6h19.4v-58.8c0-17.1-13.8-28.3-35-28.3
		c-21.8,0-35.4,11.4-36.3,27.4h18.6c1.3-7.1,7.3-11.7,16.9-11.7c9.9,0,16,5.2,16,14.1v6.1l-22.6,1.3c-20.8,1.3-32.5,10.4-32.5,25.5
		C132.2,305.1,144.2,315.4,160.8,315.4L160.8,315.4z M295.3,259.2c-1.4-17.9-15.3-32.2-37.9-32.2c-24.8,0-41,17.1-41,44.4
		c0,27.7,16.1,44.3,41.1,44.3c21.4,0,36.2-12.6,37.8-31.6h-18.9c-1.9,9.7-8.5,15.5-18.6,15.5c-12.7,0-21-10.3-21-28.2
		c0-17.5,8.1-28.2,20.8-28.2c10.7,0,17.1,6.8,18.7,15.9L295.3,259.2L295.3,259.2z M357.3,196c-33.9,0-55.2,23.1-55.2,60
		c0,36.9,21.3,60,55.2,60c33.9,0,55.1-23,55.1-60C412.4,219.1,391.1,196,357.3,196z M357.3,213.7c20.7,0,33.9,16.4,33.9,42.3
		c0,25.8-13.2,42.3-33.9,42.3c-20.8,0-33.9-16.4-33.9-42.3C323.3,230.1,336.5,213.7,357.3,213.7z M420.9,281.4
		c0.9,21.4,18.5,34.6,45.2,34.6c28.1,0,45.9-13.8,45.9-35.9c0-17.3-10-27-33.6-32.4l-13.4-3.1c-14.3-3.4-20.2-7.9-20.2-15.6
		c0-9.7,8.9-16.1,22-16.1c13.3,0,22.4,6.5,23.4,17.4h19.8c-0.5-20.4-17.4-34.3-43.1-34.3c-25.3,0-43.3,13.9-43.3,34.5
		c0,16.6,10.2,26.9,31.6,31.8l15.1,3.5c14.7,3.5,20.6,8.3,20.6,16.7c0,9.7-9.8,16.6-23.8,16.6c-14.2,0-24.9-7-26.2-17.7H420.9
		L420.9,281.4z"/>
</g>
</svg>
